<svg width="26" height="26" viewBox="0 0 26 26" fill="none" xmlns="http://www.w3.org/2000/svg">
<path d="M24.1213 14.1236L14.174 3.12963C13.8653 2.78825 13.4484 2.6001 13 2.6001C12.5527 2.6001 12.1359 2.78825 11.826 3.12963L1.87868 14.1236C1.67025 14.3546 1.68827 14.7106 1.91811 14.9191C2.02627 15.0171 2.16147 15.0644 2.29555 15.0644C2.44877 15.0644 2.602 15.0024 2.71354 14.8785L5.11221 12.2275V21.2611C5.11221 22.1928 5.87046 22.9511 6.80221 22.9511H19.1955C20.1273 22.9511 20.8855 22.1928 20.8855 21.2611V12.2275L23.2842 14.8785C23.4927 15.1095 23.8487 15.1275 24.0796 14.9179C24.3106 14.7084 24.3286 14.3535 24.1191 14.1225L24.1213 14.1236ZM15.2533 21.8244H10.7467V16.7544C10.7467 16.4435 10.999 16.1911 11.31 16.1911H14.69C15.001 16.1911 15.2533 16.4435 15.2533 16.7544V21.8244ZM19.76 21.2611C19.76 21.572 19.5076 21.8244 19.1967 21.8244H16.38V16.7544C16.38 15.8227 15.6218 15.0644 14.69 15.0644H11.31C10.3783 15.0644 9.62001 15.8227 9.62001 16.7544V21.8244H6.80334C6.49238 21.8244 6.24001 21.572 6.24001 21.2611V10.9825L12.662 3.8845C12.7544 3.78197 12.8749 3.72564 13 3.72564C13.1251 3.72564 13.2456 3.78197 13.338 3.8845L19.76 10.9825V21.2611Z" fill="#A2A8B5" fill-opacity="0.8"/>
<path d="M2.78787 14.9454L5.01221 12.487V21.2611C5.01221 22.2481 5.81523 23.0511 6.80221 23.0511H19.1955C20.1825 23.0511 20.9855 22.2481 20.9855 21.2611V12.487L23.21 14.9455C23.4555 15.2176 23.8749 15.2387 24.1468 14.992C24.4179 14.7461 24.4399 14.3294 24.1949 14.0573L24.1955 14.0566L14.2482 3.06256C14.2482 3.06255 14.2481 3.06255 14.2481 3.06254C13.9211 2.70086 13.4775 2.5001 13 2.5001C12.5235 2.5001 12.0801 2.70091 11.752 3.06242L11.7519 3.06254L1.80453 14.0566L1.80444 14.0567C1.55909 14.3285 1.58023 14.7477 1.85094 14.9931L1.85096 14.9932C1.97842 15.1087 2.1379 15.1644 2.29555 15.1644C2.47566 15.1644 2.65635 15.0915 2.78777 14.9455C2.7878 14.9455 2.78784 14.9454 2.78787 14.9454ZM12.7362 3.95159L12.7363 3.95144C12.8117 3.86773 12.9061 3.82564 13 3.82564C13.0939 3.82564 13.1883 3.86773 13.2637 3.95144L13.2639 3.95159L19.66 11.021V21.2611C19.66 21.5168 19.4524 21.7244 19.1967 21.7244H16.48V16.7544C16.48 15.7674 15.677 14.9644 14.69 14.9644H11.31C10.323 14.9644 9.52001 15.7674 9.52001 16.7544V21.7244H6.80334C6.54761 21.7244 6.34001 21.5168 6.34001 21.2611V11.021L12.7362 3.95159ZM15.1533 21.7244H10.8467V16.7544C10.8467 16.4987 11.0543 16.2911 11.31 16.2911H14.69C14.9457 16.2911 15.1533 16.4987 15.1533 16.7544V21.7244Z" stroke="#A2A8B5" stroke-opacity="0.8" stroke-width="0.2"/>
</svg>
