<svg width="20" height="24" viewBox="0 0 20 24" fill="none" xmlns="http://www.w3.org/2000/svg">
<path d="M9.57149 1.17603L9.43387 1.03083L9.43059 1.03408C9.29782 1.16588 9.21224 1.33922 9.18782 1.52332C5.26461 1.94142 2.19676 5.23617 2.19676 9.23057V17.3656H1.65202C1.18355 17.3656 0.8 17.7418 0.8 18.2105C0.8 18.6792 1.18355 19.0554 1.65202 19.0554H5.06302C5.46284 21.3652 7.47086 23.1357 9.89961 23.1983L9.8996 23.1986L9.90992 23.1983C12.3387 23.1357 14.3467 21.3652 14.7465 19.0554H18.1575C18.626 19.0554 19.0095 18.6792 19.0095 18.2105C19.0095 17.7418 18.626 17.3656 18.1575 17.3656H17.6128V9.23057C17.6128 5.23617 14.5449 1.94143 10.6217 1.52332C10.5973 1.33922 10.5117 1.16588 10.3789 1.03408L10.379 1.03405L10.3756 1.03087L10.238 1.17603L10.3756 1.03081L10.3755 1.03075L10.3754 1.03062L10.375 1.03031L10.3742 1.02949L10.3716 1.02711L10.3633 1.01957C10.3564 1.01342 10.3469 1.00503 10.3351 0.995152C10.3117 0.97558 10.2784 0.94923 10.239 0.9225C10.1709 0.876324 10.0437 0.8 9.90476 0.8C9.7658 0.8 9.63859 0.876324 9.57052 0.9225C9.53112 0.949229 9.49783 0.975579 9.47445 0.995152C9.46265 1.00503 9.45308 1.01342 9.44622 1.01957L9.43793 1.02711L9.43537 1.02949L9.4345 1.03031L9.43417 1.03062L9.43403 1.03075L9.43397 1.03081L9.57149 1.17603ZM10.0327 21.5102C8.48631 21.5102 7.18348 20.4656 6.8052 19.0554H13.26C12.8818 20.4656 11.579 21.5102 10.0327 21.5102ZM5.84235 17.3656H3.90081V9.23057C3.90081 5.93202 6.58063 3.2367 9.90476 3.16913C13.2289 3.2367 15.9087 5.93202 15.9087 9.23057V17.3656H13.9672H5.84235Z" fill="#A2A8B5" stroke="#A2A8B5" stroke-width="0.4"/>
</svg>
